<?xml version="1.0" encoding="UTF-8" ?>
<!DOCTYPE svg PUBLIC "-//W3C//DTD SVG 1.1//EN" "http://www.w3.org/Graphics/SVG/1.1/DTD/svg11.dtd">
<svg width="103pt" height="76pt" viewBox="0 0 103 76" version="1.1" xmlns="http://www.w3.org/2000/svg">
<g id="#12100dff">
<path fill="#12100d" opacity="1.00" d=" M 46.09 24.12 C 53.12 23.34 60.25 23.27 67.20 24.72 C 66.67 25.71 66.14 26.71 65.62 27.71 C 63.46 28.01 61.30 28.32 59.14 28.62 C 58.98 29.50 58.81 30.39 58.65 31.27 C 60.16 31.43 61.68 31.60 63.20 31.77 C 60.73 33.06 58.27 34.39 55.75 35.60 C 54.77 35.89 53.79 36.18 52.81 36.47 C 56.49 36.71 60.18 36.87 63.86 37.00 C 60.91 40.25 58.21 43.74 54.98 46.73 C 53.80 45.16 52.62 43.59 51.44 42.02 C 53.72 40.89 55.97 39.70 58.21 38.50 C 55.07 38.19 51.93 37.93 48.78 37.63 C 49.62 36.87 50.46 36.12 51.31 35.38 C 52.05 34.73 52.80 34.07 53.54 33.42 C 53.59 32.05 53.64 30.68 53.70 29.32 C 51.23 28.73 48.75 28.16 46.27 27.62 C 46.21 26.45 46.15 25.29 46.09 24.12 Z" />
</g>
<g id="#15191bff">
</g>
<g id="#f1ce67ff">
<path fill="#f1ce67" opacity="1.00" d=" M 37.03 19.99 C 44.07 10.55 58.57 8.33 68.44 14.51 C 75.06 18.41 78.92 25.71 80.11 33.13 C 79.78 33.49 79.10 34.20 78.76 34.56 C 76.16 32.75 73.69 29.58 70.24 29.89 C 67.51 31.30 66.15 34.35 63.60 36.01 C 60.98 36.28 58.36 35.78 55.75 35.60 C 58.27 34.39 60.73 33.06 63.20 31.77 C 61.68 31.60 60.16 31.43 58.65 31.27 C 58.81 30.39 58.98 29.50 59.14 28.62 C 61.30 28.32 63.46 28.01 65.62 27.71 C 66.14 26.71 66.67 25.71 67.20 24.72 C 60.25 23.27 53.12 23.34 46.09 24.12 C 46.15 25.29 46.21 26.45 46.27 27.62 C 48.75 28.16 51.23 28.73 53.70 29.32 C 53.64 30.68 53.59 32.05 53.54 33.42 C 52.80 34.07 52.05 34.73 51.31 35.38 C 48.73 34.65 46.16 33.92 43.58 33.17 C 42.37 30.60 41.15 28.03 39.89 25.47 C 38.20 27.55 35.75 29.52 35.75 32.45 C 35.66 37.07 35.83 41.69 35.65 46.31 C 34.39 44.51 32.99 42.68 32.58 40.46 C 31.26 33.42 32.54 25.71 37.03 19.99 Z" />
</g>
<g id="#fefefeff">
</g>
<g id="#e8ba50ff">
<path fill="#e8ba50" opacity="1.00" d=" M 35.75 32.45 C 35.75 29.52 38.20 27.55 39.89 25.47 C 41.15 28.03 42.37 30.60 43.58 33.17 C 46.16 33.92 48.73 34.65 51.31 35.38 C 50.46 36.12 49.62 36.87 48.78 37.63 C 51.93 37.93 55.07 38.19 58.21 38.50 C 55.97 39.70 53.72 40.89 51.44 42.02 C 52.62 43.59 53.80 45.16 54.98 46.73 C 53.26 48.14 51.55 49.67 49.43 50.44 C 46.77 50.16 44.46 48.52 41.82 48.20 C 40.01 48.35 38.38 49.25 36.69 49.85 C 36.31 48.68 35.87 47.53 35.65 46.31 C 35.83 41.69 35.66 37.07 35.75 32.45 Z" />
</g>
<g id="#dca83cff">
<path fill="#dca83c" opacity="1.00" d=" M 63.60 36.01 C 66.15 34.35 67.51 31.30 70.24 29.89 C 73.69 29.58 76.16 32.75 78.76 34.56 C 79.10 34.20 79.78 33.49 80.11 33.13 C 79.91 36.36 79.97 39.70 78.81 42.78 C 76.60 48.66 72.06 53.47 66.70 56.65 C 62.29 59.29 56.90 58.94 51.98 58.64 C 45.80 58.23 40.99 53.87 36.69 49.85 C 38.38 49.25 40.01 48.35 41.82 48.20 C 44.46 48.52 46.77 50.16 49.43 50.44 C 51.55 49.67 53.26 48.14 54.98 46.73 C 58.21 43.74 60.91 40.25 63.86 37.00 C 60.18 36.87 56.49 36.71 52.81 36.47 C 53.79 36.18 54.77 35.89 55.75 35.60 C 58.36 35.78 60.98 36.28 63.60 36.01 Z" />
</g>
</svg>
